# xmcd CD database file
#
# Track frame offsets:
#	150
#	16372
#	32372
#	51989
#	69496
#	88533
#	104190
#	120627
#	137910
#	151641
#	164213
#
# Disc length: 2379 seconds
#
# Revision: 5
# Processed by: cddbd v1.5.2PL0 Copyright (c) Steve Scherf et al.
# Submitted via: CDex 1.79
#
DISCID=9309490b
DTITLE=Kenny Rogers - Greatest Country Hits
DYEAR=1990
DGENRE=Country
TTITLE0=Lucille
TTITLE1=The Gambler
TTITLE2=Coward of the County
TTITLE3=Lady
TTITLE4=She Believes in Me
TTITLE5=I Don't Need You
TTITLE6=Love Will Turn You Around
TTITLE7=We've Got Tonight (with Sheena Easton)
TTITLE8=But You Know I Love You (with the First Edition)
TTITLE9=Ruben James (with the First Edition)
TTITLE10=Daytime Friends
EXTD=YEAR: 1990
EXTT0=
EXTT1=
EXTT2=
EXTT3=
EXTT4=
EXTT5=
EXTT6=
EXTT7=
EXTT8=
EXTT9=
EXTT10=
PLAYORDER=
